<?xml version="1.0" standalone="no"?><!DOCTYPE svg PUBLIC "-//W3C//DTD SVG 1.1//EN" "http://www.w3.org/Graphics/SVG/1.1/DTD/svg11.dtd"><svg t="1614740418915" class="icon" viewBox="0 0 1024 1024" version="1.1" xmlns="http://www.w3.org/2000/svg" p-id="7612" xmlns:xlink="http://www.w3.org/1999/xlink" width="200" height="200"><defs><style type="text/css"></style></defs><path d="M643.2 682.666667a128 128 0 0 0-96-123.733334V138.666667a32 32 0 0 0-64 0v420.053333a128 128 0 0 0 0 247.68v78.933333a32 32 0 0 0 64 0v-78.933333a128 128 0 0 0 96-123.733333z m-128 64a64 64 0 1 1 64-64 64 64 0 0 1-64 64zM917.333333 341.333333a128 128 0 0 0-96-123.733333V138.666667a32 32 0 0 0-64 0v78.933333a128 128 0 0 0 0 247.68V885.333333a32 32 0 0 0 64 0V465.28A128 128 0 0 0 917.333333 341.333333z m-128 64a64 64 0 1 1 64-64 64 64 0 0 1-64 64zM362.666667 341.333333a128 128 0 0 0-96-123.733333V138.666667a32 32 0 0 0-64 0v78.933333a128 128 0 0 0 0 247.68V885.333333a32 32 0 0 0 64 0V465.28A128 128 0 0 0 362.666667 341.333333z m-128 64a64 64 0 1 1 64-64 64 64 0 0 1-64 64z" p-id="7613"></path></svg>