<?xml version="1.0" standalone="no"?><!DOCTYPE svg PUBLIC "-//W3C//DTD SVG 1.1//EN" "http://www.w3.org/Graphics/SVG/1.1/DTD/svg11.dtd"><svg t="1614935265302" class="icon" viewBox="0 0 1024 1024" version="1.1" xmlns="http://www.w3.org/2000/svg" p-id="11002" xmlns:xlink="http://www.w3.org/1999/xlink" width="200" height="200"><defs><style type="text/css"></style></defs><path d="M896 544H384c-17.6 0-32-14.4-32-32s14.4-32 32-32h512c17.6 0 32 14.4 32 32s-14.4 32-32 32z m0 320H384c-17.6 0-32-14.4-32-32s14.4-32 32-32h512c17.6 0 32 14.4 32 32s-14.4 32-32 32z m0-640H384c-17.6 0-32-14.4-32-32s14.4-32 32-32h512c17.6 0 32 14.4 32 32s-14.4 32-32 32zM224 544h-96c-17.6 0-32-14.4-32-32s14.4-32 32-32h96c17.6 0 32 14.4 32 32s-14.4 32-32 32z m0 320h-96c-17.6 0-32-14.4-32-32s14.4-32 32-32h96c17.6 0 32 14.4 32 32s-14.4 32-32 32z m0-640h-96c-17.6 0-32-14.4-32-32s14.4-32 32-32h96c17.6 0 32 14.4 32 32s-14.4 32-32 32z" p-id="11003"></path></svg>