<?xml version="1.0" standalone="no"?><!DOCTYPE svg PUBLIC "-//W3C//DTD SVG 1.1//EN" "http://www.w3.org/Graphics/SVG/1.1/DTD/svg11.dtd"><svg t="1614934790868" class="icon" viewBox="0 0 1024 1024" version="1.1" xmlns="http://www.w3.org/2000/svg" p-id="8582" xmlns:xlink="http://www.w3.org/1999/xlink" width="200" height="200"><defs><style type="text/css"></style></defs><path d="M512 61c127.578 0 231 103.422 231 231S639.578 523 512 523 281 419.578 281 292 384.422 61 512 61z m0 54c-97.754 0-177 79.246-177 177s79.246 177 177 177 177-79.246 177-177-79.246-177-177-177zM516 546c32.294 0 59.658 3.017 86.148 9.408 14.496 3.497 23.412 18.083 19.915 32.579-3.498 14.496-18.084 23.412-32.58 19.915-15.409-3.718-31.276-6.084-48.972-7.182L518 687.171 547 954h-70l29-266.829-22.348-85.83c-82.826 6.903-159.332 40.279-222.63 95.628-69.049 60.38-118.91 144.158-141.039 237.158-3.452 14.506-18.01 23.468-32.517 20.016-14.506-3.451-23.468-18.01-20.016-32.516 24.701-103.812 80.438-197.462 158.026-265.308C306.598 585.383 407.448 546 516 546z" p-id="8583"></path><path d="M946.884 534.894c12.904 10.827 14.587 30.065 3.76 42.969L910.14 626.13l34.308 28.788c12.903 10.827 14.587 30.065 3.759 42.97-10.828 12.903-30.066 14.586-42.97 3.758l-34.307-28.787-39.846 47.487a30.572 30.572 0 0 1-5.359 5.022c40.998 51.945 41.29 127.368-3.065 180.228-50.765 60.5-140.791 68.535-201.08 17.947-60.288-50.587-68.008-140.642-17.242-201.141 44.084-52.538 117.777-65.512 175.891-34.887a30.537 30.537 0 0 1 4.126-6.379l119.559-142.484c10.827-12.904 30.065-14.587 42.97-3.76z m-175.21 209.151l-16.619-8.757c-36.516-19.243-82.248-10.473-109.35 21.825-31.622 37.686-26.823 93.675 10.587 125.065s93.38 26.395 125.003-11.291c27.006-32.185 27.775-78.506 2.807-111.08l-0.764-0.983-11.663-14.779z" p-id="8584"></path></svg>