<?xml version="1.0" standalone="no"?><!DOCTYPE svg PUBLIC "-//W3C//DTD SVG 1.1//EN" "http://www.w3.org/Graphics/SVG/1.1/DTD/svg11.dtd"><svg t="1614739448322" class="icon" viewBox="0 0 1024 1024" version="1.1" xmlns="http://www.w3.org/2000/svg" p-id="6848" xmlns:xlink="http://www.w3.org/1999/xlink" width="200" height="200"><defs><style type="text/css"></style></defs><path d="M885.333333 149.333333A32 32 0 0 1 917.333333 181.333333v512a32 32 0 0 1-32 32H545.173333v85.333334H736a32 32 0 0 1 0 64h-448a32 32 0 0 1 0-64h193.173333v-85.333334H138.666667A32 32 0 0 1 106.666667 693.333333v-512A32 32 0 0 1 138.666667 149.333333h746.666666zM853.333333 597.333333H170.666667v42.666667a21.333333 21.333333 0 0 0 18.837333 21.184L192 661.333333h640a21.333333 21.333333 0 0 0 21.184-18.837333L853.333333 640v-42.666667z m-21.333333-384H192a21.333333 21.333333 0 0 0-21.184 18.837334L170.666667 234.666667v298.666666h682.666666V234.666667a21.333333 21.333333 0 0 0-21.333333-21.333334z"s p-id="6849"></path></svg>