<?xml version="1.0" standalone="no"?><!DOCTYPE svg PUBLIC "-//W3C//DTD SVG 1.1//EN" "http://www.w3.org/Graphics/SVG/1.1/DTD/svg11.dtd"><svg t="1614739114218" class="icon" viewBox="0 0 1024 1024" version="1.1" xmlns="http://www.w3.org/2000/svg" p-id="3342" xmlns:xlink="http://www.w3.org/1999/xlink" width="200" height="200"><defs><style type="text/css"></style></defs><path d="M721.454545 167.563636c-18.618182-9.309091-41.890909-4.654545-51.2 13.963637-9.309091 18.618182-4.654545 41.890909 13.963637 51.2 102.4 60.509091 162.909091 167.563636 162.909091 288.581818 0 186.181818-148.945455 335.127273-335.127273 335.127273s-335.127273-148.945455-335.127273-335.127273c0-116.363636 60.509091-228.072727 162.909091-288.581818 18.618182-9.309091 23.272727-32.581818 13.963637-51.2-9.309091-18.618182-32.581818-23.272727-51.2-13.963637-121.018182 74.472727-200.145455 209.454545-200.145455 353.745455 0 228.072727 181.527273 409.6 409.6 409.6s409.6-181.527273 409.6-409.6c0-144.290909-74.472727-279.272727-200.145455-353.745455z" p-id="3343"></path><path d="M512 465.454545c23.272727 0 37.236364-13.963636 37.236364-37.236363v-302.545455c0-18.618182-13.963636-32.581818-32.581819-32.581818h-4.654545c-18.618182 0-32.581818 13.963636-32.581818 32.581818v307.2c0 18.618182 13.963636 32.581818 32.581818 32.581818z" p-id="3344"></path></svg>